<svg width="23" height="23" viewBox="0 0 23 23" fill="none" xmlns="http://www.w3.org/2000/svg">
<path opacity="0.991" fill-rule="evenodd" clip-rule="evenodd" d="M6.22815 0.00134381C4.1273 -0.018708 2.05127 0.185644 0 0.614404C0.0877342 0.817751 0.226715 0.990663 0.416845 1.13315C1.15083 2.08901 1.69028 3.14222 2.03518 4.29276C2.26199 5.00797 2.45816 5.73105 2.62367 6.46205C3.01354 8.35231 3.42219 10.2386 3.84968 12.1211C4.19547 13.5902 4.73491 14.9893 5.46802 16.3182C6.89358 18.6507 9.02684 19.7983 11.8678 19.7607C13.9273 19.6869 15.9216 19.3018 17.8507 18.6054C16.6349 15.0993 14.894 11.8689 12.6279 8.91429C12.5952 8.88284 12.5952 8.85143 12.6279 8.81998C15.6442 11.3256 18.1289 14.2338 20.0821 17.5443C20.9966 19.1764 21.6177 20.9056 21.9456 22.7317C22.4031 23.1499 22.7545 23.0792 23 22.5195C22.6763 20.6112 22.0388 18.8034 21.0874 17.0963C21.9423 15.6519 22.4736 14.1035 22.6812 12.4512C22.8922 9.74287 22.0585 7.38495 20.1802 5.37741C18.0967 3.3145 15.6119 1.86831 12.726 1.03883C10.6002 0.419097 8.43423 0.0732699 6.22815 0.00134381Z" fill="#3E5A39"/>
</svg>
