<svg width="593" height="101" viewBox="0 0 593 101" fill="none" xmlns="http://www.w3.org/2000/svg">
<g filter="url(#filter0_i_1056_13)">
<rect width="593" height="101" rx="30" fill="#EEF3EB"/>
</g>
<rect x="1.5" y="1.5" width="590" height="98" rx="28.5" stroke="#658353" stroke-width="3"/>
<path d="M56.0703 36.625V65.8984C56.0703 67.0391 56.4453 67.9844 57.1953 68.7344C57.2578 68.7969 57.3906 68.875 57.5938 68.9688C57.7969 69.0625 57.8984 69.2578 57.8984 69.5547C57.8984 69.8516 57.7969 70 57.5938 70H50C49.7969 70 49.6953 69.8672 49.6953 69.6016C49.6953 69.3203 49.7266 69.1562 49.7891 69.1094C49.8672 69.0469 49.9688 68.9922 50.0938 68.9453C50.2188 68.8828 50.375 68.7578 50.5625 68.5703C50.7656 68.3672 50.9766 68.0078 51.1953 67.4922C51.4141 66.9609 51.5234 66.4297 51.5234 65.8984V35.7109C51.5234 34.5703 51.1484 33.625 50.3984 32.875C50.3359 32.8125 50.2031 32.7344 50 32.6406C49.7969 32.5469 49.6953 32.3516 49.6953 32.0547C49.6953 31.7578 49.7969 31.6094 50 31.6094H62.7969C64.9062 31.6094 66.8672 32.0234 68.6797 32.8516C70.5078 33.6641 71.9922 34.875 73.1328 36.4844C74.2734 38.0781 74.8438 39.9844 74.8438 42.2031C74.8438 44.4219 74.3281 46.2812 73.2969 47.7812C71.2656 50.6875 67.0703 52.1328 60.7109 52.1172H57.5703C57.3672 52.1172 57.2656 51.8984 57.2656 51.4609V49.4922C57.2656 49.0547 57.3672 48.8359 57.5703 48.8359H60.7109C67.1641 48.8359 70.3906 46.5469 70.3906 41.9688C70.3906 40.2969 69.9062 38.9922 68.9375 38.0547C67.3438 36.5078 65.3281 35.625 62.8906 35.4062H57.5C57.1562 35.4062 56.8281 35.5469 56.5156 35.8281C56.2188 36.0938 56.0703 36.3594 56.0703 36.625ZM88.2406 35.5234L88.2641 35.1016C88.2641 35.0234 88.3031 34.9609 88.3812 34.9141C88.475 34.8516 88.5297 34.8125 88.5453 34.7969L92.7641 31.6797C92.8266 31.6328 92.9047 31.6094 92.9984 31.6094C93.6859 31.6094 94.0297 31.8516 94.0297 32.3359V65.8984C94.0297 66.0078 94.0219 66.1797 94.0062 66.4141C94.0062 66.6484 94.0062 66.8125 94.0062 66.9062C94.1 67.9375 94.4281 68.5469 94.9906 68.7344C95.5531 68.9688 95.8344 69.1719 95.8344 69.3438C95.8344 69.7812 95.7328 70 95.5297 70H88.6391C88.4359 70 88.3344 69.8594 88.3344 69.5781C88.3344 69.2969 88.3969 69.1172 88.5219 69.0391C88.6469 68.9609 88.8109 68.8828 89.0141 68.8047C89.2172 68.7266 89.3734 68.6328 89.4828 68.5234C89.6078 68.3984 89.7172 68.2656 89.8109 68.125C89.9047 67.9688 89.975 67.8438 90.0219 67.75C90.0687 67.6406 90.1 67.4922 90.1156 67.3047C90.1469 67.1016 90.1625 66.9688 90.1625 66.9062V37.4453C90.1625 36.9297 90.0375 36.5703 89.7875 36.3672C89.5531 36.1484 89.2953 36.0312 89.0141 36.0156C88.7328 36 88.5453 35.9531 88.4516 35.875C88.3109 35.7812 88.2406 35.6641 88.2406 35.5234ZM113.028 64.0703C113.028 65.1172 113.481 65.9062 114.388 66.4375C115.294 66.9531 116.216 67.2109 117.153 67.2109C118.091 67.2109 118.786 67.1719 119.239 67.0938C119.708 67.0156 120.184 66.875 120.669 66.6719C121.575 66.2969 122.38 65.9062 123.083 65.5C123.083 65.5 123.45 65.2969 124.184 64.8906L122.825 58.6562C122.263 58.875 121.567 59.1172 120.739 59.3828L118.489 60.0859C114.848 61.1797 113.028 62.5078 113.028 64.0703ZM122.38 56.2422C121.911 51.9609 120.669 49.8203 118.653 49.8203C117.419 49.8203 116.341 50.2656 115.419 51.1562C114.513 52.0312 114.059 53.0625 114.059 54.25L114.27 55.2109C114.27 55.3359 114.114 55.5312 113.802 55.7969C113.505 56.0625 113.302 56.1484 113.192 56.0547L110.473 52.5625C110.473 52.3594 110.645 52.1328 110.989 51.8828C111.348 51.6328 111.653 51.3828 111.903 51.1328L112.466 50.5938C113.278 49.7812 113.848 49.2656 114.177 49.0469L115.325 48.2969C116.45 47.5625 117.7 47.1953 119.075 47.1953C121.091 47.1953 122.622 47.7422 123.669 48.8359C124.388 49.5859 124.888 50.3281 125.169 51.0625C125.45 51.7812 125.653 52.3672 125.778 52.8203C126.044 53.7891 126.263 54.9141 126.434 56.1953L126.692 58C126.786 58.7188 126.88 59.3906 126.973 60.0156C127.083 60.6406 127.153 61.0703 127.184 61.3047C127.216 61.5234 127.294 61.9219 127.419 62.5C127.544 63.0625 127.661 63.5312 127.77 63.9062C128.098 65.0156 128.481 65.8516 128.919 66.4141C129.356 66.9609 129.841 67.2344 130.372 67.2344C130.919 67.2344 131.302 67.0781 131.52 66.7656C131.927 66.1719 132.223 65.875 132.411 65.875C132.505 65.875 132.661 65.9844 132.88 66.2031C133.098 66.4219 133.208 66.5859 133.208 66.6953C133.208 66.8047 132.958 67.1719 132.458 67.7969C131.973 68.4062 131.419 69.0078 130.794 69.6016C130.184 70.1953 129.747 70.4922 129.481 70.4922C128.481 70.4922 127.528 70.1016 126.622 69.3203C125.731 68.5234 125.184 67.6875 124.981 66.8125C124.466 67.2812 123.591 67.8516 122.356 68.5234C119.919 69.8359 117.966 70.4922 116.497 70.4922C115.028 70.4922 113.786 70.2812 112.77 69.8594C111.77 69.4375 110.934 68.7891 110.263 67.9141C109.606 67.0391 109.278 66.125 109.278 65.1719C109.278 64.2188 109.411 63.4219 109.677 62.7812C109.942 62.1406 110.286 61.5938 110.708 61.1406C111.13 60.6719 111.653 60.2422 112.278 59.8516C112.903 59.4453 113.536 59.1094 114.177 58.8438C115.52 58.2969 117.005 57.8125 118.63 57.3906C120.27 56.9531 121.52 56.5703 122.38 56.2422ZM145.878 70C145.675 70 145.573 69.8594 145.573 69.5781C145.573 69.2969 145.636 69.1172 145.761 69.0391C145.902 68.9609 146.066 68.8828 146.253 68.8047C146.456 68.7266 146.613 68.6328 146.722 68.5234C147.206 68.0391 147.441 67.5 147.425 66.9062C147.425 66.2969 147.425 65.9609 147.425 65.8984V53.5C147.425 53 147.3 52.6406 147.05 52.4219C146.8 52.2031 146.534 52.0859 146.253 52.0703C145.972 52.0547 145.784 52.0156 145.691 51.9531C145.613 51.875 145.558 51.8047 145.527 51.7422C145.511 51.6797 145.495 51.625 145.48 51.5781C145.48 51.5312 145.48 51.4609 145.48 51.3672C145.495 51.2734 145.503 51.2031 145.503 51.1562C145.503 51.1094 145.511 51.0703 145.527 51.0391C145.558 51.0078 145.605 50.9766 145.667 50.9453C145.73 50.8984 145.769 50.8672 145.784 50.8516L150.003 47.7344C150.066 47.6875 150.238 47.6641 150.519 47.6641C150.8 47.6641 151.003 47.7031 151.128 47.7812C151.253 47.8438 151.316 48.0469 151.316 48.3906V50.125L152.511 49.4219L153.214 49.0703C155.386 47.9766 157.417 47.4297 159.308 47.4297C161.198 47.4297 163.058 48.1016 164.886 49.4453C165.714 50.0547 166.386 50.7969 166.902 51.6719C167.433 52.5312 167.698 53.4297 167.698 54.3672V66.9062C167.698 67.25 167.792 67.6172 167.98 68.0078C168.167 68.3828 168.472 68.6562 168.894 68.8281C169.316 69 169.527 69.1719 169.527 69.3438C169.527 69.7812 169.425 70 169.222 70H162.355C162.152 70 162.05 69.8594 162.05 69.5781C162.05 69.2969 162.113 69.1172 162.238 69.0391C162.378 68.9609 162.542 68.8828 162.73 68.8047C162.933 68.7266 163.097 68.625 163.222 68.5C163.363 68.375 163.48 68.2344 163.573 68.0781C163.667 67.9219 163.73 67.7422 163.761 67.5391C163.808 67.3203 163.831 67.1641 163.831 67.0703C163.847 66.9609 163.847 66.7656 163.831 66.4844C163.831 66.1875 163.831 65.9922 163.831 65.8984V54.9531C163.831 54.0156 163.519 53.1953 162.894 52.4922C161.691 51.1797 160.003 50.5234 157.831 50.5234C155.659 50.5234 153.48 51.0703 151.292 52.1641V66.9062C151.292 67.25 151.386 67.6172 151.573 68.0078C151.761 68.3828 152.066 68.6562 152.488 68.8281C152.909 69 153.12 69.1719 153.12 69.3438C153.12 69.7812 153.019 70 152.816 70H145.878ZM185.572 43.4922C185.619 43.1797 185.9 43.0234 186.416 43.0234C186.947 43.0234 187.212 43.1797 187.212 43.4922V47.6641H191.361C192.158 47.6641 192.556 47.7656 192.556 47.9688V50.0312C192.556 50.2344 192.158 50.3359 191.361 50.3359H187.212V64.8906C187.212 66.75 187.759 67.7891 188.853 68.0078C189.681 68.1797 190.541 67.8672 191.431 67.0703C191.791 66.7422 192.041 66.6641 192.181 66.8359C192.337 67.0078 192.447 67.1406 192.509 67.2344C192.572 67.3281 192.603 67.4219 192.603 67.5156C192.603 67.5938 192.603 67.6562 192.603 67.7031C192.619 67.7812 192.533 67.9141 192.345 68.1016L191.853 68.5234C190.228 69.9297 188.642 70.5703 187.095 70.4453C185.564 70.3203 184.486 69.4219 183.861 67.75C183.517 66.8438 183.345 65.7422 183.345 64.4453V50.3359H182.267C181.47 50.3359 181.072 50.2344 181.072 50.0312V47.9688C181.072 47.7656 181.4 47.6641 182.056 47.6641C183.212 47.6641 184.041 47.2578 184.541 46.4453C185.056 45.6328 185.4 44.6484 185.572 43.4922ZM210.852 65.8984L210.922 70C210.922 70.4531 210.852 70.8203 210.711 71.1016C210.586 71.3828 210.328 71.75 209.938 72.2031C209.562 72.6562 208.945 73.5156 208.086 74.7812C207.242 76.0625 206.672 76.8516 206.375 77.1484C206.094 77.4453 205.766 77.7578 205.391 78.0859C205.016 78.4297 204.656 78.6016 204.312 78.6016C203.969 78.6016 203.734 78.5703 203.609 78.5078C203.5 78.4609 203.43 78.3906 203.398 78.2969C203.383 78.2031 203.383 78.1016 203.398 77.9922C203.414 77.8984 203.531 77.6328 203.75 77.1953C205.406 74.5234 206.414 72.25 206.773 70.375C206.914 69.6094 206.984 68.8125 206.984 67.9844V53.5C206.984 53 206.859 52.6406 206.609 52.4219C206.359 52.2031 206.094 52.0859 205.812 52.0703C205.531 52.0547 205.336 52.0078 205.227 51.9297C205.117 51.8516 205.062 51.6953 205.062 51.4609C205.062 51.2109 205.07 51.0703 205.086 51.0391C205.117 51.0078 205.164 50.9766 205.227 50.9453C205.289 50.8984 205.328 50.8672 205.344 50.8516L209.562 47.7344C209.672 47.6562 209.758 47.6406 209.82 47.6875C209.883 47.7188 210.07 47.7812 210.383 47.875C210.695 47.9688 210.852 48.1406 210.852 48.3906V65.8984ZM210.781 35.9922V37.8906C210.781 38.0312 210.742 38.1406 210.664 38.2188C210.602 38.2812 210.273 38.4219 209.68 38.6406C209.102 38.8594 208.664 39.0391 208.367 39.1797C207.742 39.4922 207.391 39.6094 207.312 39.5312C207.25 39.4531 207.219 39.1406 207.219 38.5938V35.9688C207.219 35.8281 207.25 35.7266 207.312 35.6641C207.391 35.5859 207.719 35.4375 208.297 35.2188C208.891 35 209.336 34.8203 209.633 34.6797C210.258 34.3672 210.602 34.25 210.664 34.3281C210.742 34.4062 210.781 34.9609 210.781 35.9922ZM240.256 53.7109C239.334 51.0703 237.342 49.75 234.28 49.75C232.889 49.75 231.616 50.125 230.459 50.875C229.303 51.6094 228.413 52.5547 227.788 53.7109C227.178 54.8516 226.873 55.9297 226.873 56.9453C226.873 57.9609 226.905 58.4609 226.967 58.4453L240.209 53.8281V53.6875L240.256 53.7109ZM227.483 60.9297C228.155 62.7734 229.288 64.2188 230.881 65.2656C232.475 66.3125 234.288 66.8359 236.319 66.8359C238.897 66.8359 241.248 65.625 243.373 63.2031C243.702 62.8906 244.186 63.0547 244.827 63.6953C244.873 63.7422 244.866 63.8125 244.803 63.9062C243.022 66.375 241.639 67.9531 240.655 68.6406C238.983 69.8281 237.053 70.4219 234.866 70.4219C233.381 70.4219 231.944 70.125 230.553 69.5312C227.694 68.2812 225.655 66.2812 224.436 63.5312C223.811 62.125 223.498 60.4609 223.498 58.5391C223.498 56.6016 223.983 54.7422 224.952 52.9609C225.936 51.1641 227.35 49.75 229.194 48.7188C231.053 47.6875 233.186 47.1719 235.592 47.1719C238.53 47.1719 241.139 48.5312 243.42 51.25C244.577 52.625 245.155 53.7188 245.155 54.5312L227.483 60.9297ZM272.216 52.4453C272.216 52.6172 272.059 52.7031 271.747 52.7031C271.434 52.6875 271.247 52.6797 271.184 52.6797C270.997 52.6797 270.856 52.5469 270.762 52.2812C270.419 51.4688 269.7 50.8047 268.606 50.2891C267.512 49.7578 266.442 49.4922 265.395 49.4922C264.348 49.4922 263.442 49.75 262.677 50.2656C261.911 50.7812 261.528 51.4375 261.528 52.2344C261.528 53.0156 261.88 53.6719 262.583 54.2031C263.286 54.7344 263.997 55.1953 264.716 55.5859C265.45 55.9609 265.934 56.2188 266.169 56.3594L268.395 57.625C270.395 58.7188 271.723 59.875 272.38 61.0938C272.833 61.9375 273.059 62.9766 273.059 64.2109C273.059 65.4297 272.708 66.5469 272.005 67.5625C270.645 69.5156 268.372 70.4922 265.184 70.4922C263.559 70.4922 261.606 70.2109 259.325 69.6484C259.262 69.6172 259.153 69.5859 258.997 69.5547C258.841 69.5234 258.692 69.4766 258.552 69.4141C258.427 69.3516 258.356 69.1875 258.341 68.9219C258.325 68.6562 258.223 68.1094 258.036 67.2812C257.848 66.4375 257.755 65.8984 257.755 65.6641C257.755 65.4297 257.77 65.2891 257.802 65.2422C257.848 65.1797 257.895 65.1328 257.942 65.1016C257.989 65.0547 258.059 65.0156 258.153 64.9844C258.247 64.9375 258.317 64.9062 258.364 64.8906C258.411 64.875 258.481 64.8516 258.575 64.8203C258.934 64.7109 259.262 64.8906 259.559 65.3594C259.872 65.8125 260.755 66.3281 262.208 66.9062C263.677 67.4688 264.942 67.75 266.005 67.75C267.067 67.75 267.927 67.4844 268.583 66.9531C269.255 66.4062 269.591 65.6797 269.591 64.7734C269.591 63.5078 268.833 62.4766 267.317 61.6797L263.098 59.4297C261.958 58.7891 261.184 58.2969 260.778 57.9531C259.809 57.1094 259.13 56.3047 258.739 55.5391C258.348 54.7734 258.153 53.9062 258.153 52.9375C258.153 51.0312 258.856 49.6016 260.262 48.6484C261.684 47.6953 263.63 47.2188 266.098 47.2188C267.192 47.2188 268.395 47.2969 269.708 47.4531C271.036 47.6094 271.856 47.8516 272.169 48.1797C272.216 48.2266 272.239 48.8203 272.239 49.9609C272.255 51.1016 272.247 51.9297 272.216 52.4453ZM336.195 36.625V65.8984C336.195 67.0391 336.57 67.9844 337.32 68.7344C337.383 68.7969 337.516 68.875 337.719 68.9688C337.922 69.0625 338.023 69.2578 338.023 69.5547C338.023 69.8516 337.922 70 337.719 70H330.125C329.922 70 329.82 69.8672 329.82 69.6016C329.82 69.3203 329.852 69.1562 329.914 69.1094C329.992 69.0469 330.094 68.9922 330.219 68.9453C330.344 68.8828 330.5 68.7578 330.688 68.5703C330.891 68.3672 331.102 68.0078 331.32 67.4922C331.539 66.9609 331.648 66.4297 331.648 65.8984V35.7109C331.648 34.5703 331.273 33.625 330.523 32.875C330.461 32.8125 330.328 32.7344 330.125 32.6406C329.922 32.5469 329.82 32.3516 329.82 32.0547C329.82 31.7578 329.922 31.6094 330.125 31.6094H342.922C345.031 31.6094 346.992 32.0234 348.805 32.8516C350.633 33.6641 352.117 34.875 353.258 36.4844C354.398 38.0781 354.969 39.9844 354.969 42.2031C354.969 44.4219 354.453 46.2812 353.422 47.7812C351.391 50.6875 347.195 52.1328 340.836 52.1172H337.695C337.492 52.1172 337.391 51.8984 337.391 51.4609V49.4922C337.391 49.0547 337.492 48.8359 337.695 48.8359H340.836C347.289 48.8359 350.516 46.5469 350.516 41.9688C350.516 40.2969 350.031 38.9922 349.062 38.0547C347.469 36.5078 345.453 35.625 343.016 35.4062H337.625C337.281 35.4062 336.953 35.5469 336.641 35.8281C336.344 36.0938 336.195 36.3594 336.195 36.625ZM368.366 35.5234L368.389 35.1016C368.389 35.0234 368.428 34.9609 368.506 34.9141C368.6 34.8516 368.655 34.8125 368.67 34.7969L372.889 31.6797C372.952 31.6328 373.03 31.6094 373.123 31.6094C373.811 31.6094 374.155 31.8516 374.155 32.3359V65.8984C374.155 66.0078 374.147 66.1797 374.131 66.4141C374.131 66.6484 374.131 66.8125 374.131 66.9062C374.225 67.9375 374.553 68.5469 375.116 68.7344C375.678 68.9688 375.959 69.1719 375.959 69.3438C375.959 69.7812 375.858 70 375.655 70H368.764C368.561 70 368.459 69.8594 368.459 69.5781C368.459 69.2969 368.522 69.1172 368.647 69.0391C368.772 68.9609 368.936 68.8828 369.139 68.8047C369.342 68.7266 369.498 68.6328 369.608 68.5234C369.733 68.3984 369.842 68.2656 369.936 68.125C370.03 67.9688 370.1 67.8438 370.147 67.75C370.194 67.6406 370.225 67.4922 370.241 67.3047C370.272 67.1016 370.288 66.9688 370.288 66.9062V37.4453C370.288 36.9297 370.163 36.5703 369.913 36.3672C369.678 36.1484 369.42 36.0312 369.139 36.0156C368.858 36 368.67 35.9531 368.577 35.875C368.436 35.7812 368.366 35.6641 368.366 35.5234ZM393.153 64.0703C393.153 65.1172 393.606 65.9062 394.513 66.4375C395.419 66.9531 396.341 67.2109 397.278 67.2109C398.216 67.2109 398.911 67.1719 399.364 67.0938C399.833 67.0156 400.309 66.875 400.794 66.6719C401.7 66.2969 402.505 65.9062 403.208 65.5C403.208 65.5 403.575 65.2969 404.309 64.8906L402.95 58.6562C402.388 58.875 401.692 59.1172 400.864 59.3828L398.614 60.0859C394.973 61.1797 393.153 62.5078 393.153 64.0703ZM402.505 56.2422C402.036 51.9609 400.794 49.8203 398.778 49.8203C397.544 49.8203 396.466 50.2656 395.544 51.1562C394.638 52.0312 394.184 53.0625 394.184 54.25L394.395 55.2109C394.395 55.3359 394.239 55.5312 393.927 55.7969C393.63 56.0625 393.427 56.1484 393.317 56.0547L390.598 52.5625C390.598 52.3594 390.77 52.1328 391.114 51.8828C391.473 51.6328 391.778 51.3828 392.028 51.1328L392.591 50.5938C393.403 49.7812 393.973 49.2656 394.302 49.0469L395.45 48.2969C396.575 47.5625 397.825 47.1953 399.2 47.1953C401.216 47.1953 402.747 47.7422 403.794 48.8359C404.513 49.5859 405.013 50.3281 405.294 51.0625C405.575 51.7812 405.778 52.3672 405.903 52.8203C406.169 53.7891 406.388 54.9141 406.559 56.1953L406.817 58C406.911 58.7188 407.005 59.3906 407.098 60.0156C407.208 60.6406 407.278 61.0703 407.309 61.3047C407.341 61.5234 407.419 61.9219 407.544 62.5C407.669 63.0625 407.786 63.5312 407.895 63.9062C408.223 65.0156 408.606 65.8516 409.044 66.4141C409.481 66.9609 409.966 67.2344 410.497 67.2344C411.044 67.2344 411.427 67.0781 411.645 66.7656C412.052 66.1719 412.348 65.875 412.536 65.875C412.63 65.875 412.786 65.9844 413.005 66.2031C413.223 66.4219 413.333 66.5859 413.333 66.6953C413.333 66.8047 413.083 67.1719 412.583 67.7969C412.098 68.4062 411.544 69.0078 410.919 69.6016C410.309 70.1953 409.872 70.4922 409.606 70.4922C408.606 70.4922 407.653 70.1016 406.747 69.3203C405.856 68.5234 405.309 67.6875 405.106 66.8125C404.591 67.2812 403.716 67.8516 402.481 68.5234C400.044 69.8359 398.091 70.4922 396.622 70.4922C395.153 70.4922 393.911 70.2812 392.895 69.8594C391.895 69.4375 391.059 68.7891 390.388 67.9141C389.731 67.0391 389.403 66.125 389.403 65.1719C389.403 64.2188 389.536 63.4219 389.802 62.7812C390.067 62.1406 390.411 61.5938 390.833 61.1406C391.255 60.6719 391.778 60.2422 392.403 59.8516C393.028 59.4453 393.661 59.1094 394.302 58.8438C395.645 58.2969 397.13 57.8125 398.755 57.3906C400.395 56.9531 401.645 56.5703 402.505 56.2422ZM426.003 70C425.8 70 425.698 69.8594 425.698 69.5781C425.698 69.2969 425.761 69.1172 425.886 69.0391C426.027 68.9609 426.191 68.8828 426.378 68.8047C426.581 68.7266 426.738 68.6328 426.847 68.5234C427.331 68.0391 427.566 67.5 427.55 66.9062C427.55 66.2969 427.55 65.9609 427.55 65.8984V53.5C427.55 53 427.425 52.6406 427.175 52.4219C426.925 52.2031 426.659 52.0859 426.378 52.0703C426.097 52.0547 425.909 52.0156 425.816 51.9531C425.738 51.875 425.683 51.8047 425.652 51.7422C425.636 51.6797 425.62 51.625 425.605 51.5781C425.605 51.5312 425.605 51.4609 425.605 51.3672C425.62 51.2734 425.628 51.2031 425.628 51.1562C425.628 51.1094 425.636 51.0703 425.652 51.0391C425.683 51.0078 425.73 50.9766 425.792 50.9453C425.855 50.8984 425.894 50.8672 425.909 50.8516L430.128 47.7344C430.191 47.6875 430.363 47.6641 430.644 47.6641C430.925 47.6641 431.128 47.7031 431.253 47.7812C431.378 47.8438 431.441 48.0469 431.441 48.3906V50.125L432.636 49.4219L433.339 49.0703C435.511 47.9766 437.542 47.4297 439.433 47.4297C441.323 47.4297 443.183 48.1016 445.011 49.4453C445.839 50.0547 446.511 50.7969 447.027 51.6719C447.558 52.5312 447.823 53.4297 447.823 54.3672V66.9062C447.823 67.25 447.917 67.6172 448.105 68.0078C448.292 68.3828 448.597 68.6562 449.019 68.8281C449.441 69 449.652 69.1719 449.652 69.3438C449.652 69.7812 449.55 70 449.347 70H442.48C442.277 70 442.175 69.8594 442.175 69.5781C442.175 69.2969 442.238 69.1172 442.363 69.0391C442.503 68.9609 442.667 68.8828 442.855 68.8047C443.058 68.7266 443.222 68.625 443.347 68.5C443.488 68.375 443.605 68.2344 443.698 68.0781C443.792 67.9219 443.855 67.7422 443.886 67.5391C443.933 67.3203 443.956 67.1641 443.956 67.0703C443.972 66.9609 443.972 66.7656 443.956 66.4844C443.956 66.1875 443.956 65.9922 443.956 65.8984V54.9531C443.956 54.0156 443.644 53.1953 443.019 52.4922C441.816 51.1797 440.128 50.5234 437.956 50.5234C435.784 50.5234 433.605 51.0703 431.417 52.1641V66.9062C431.417 67.25 431.511 67.6172 431.698 68.0078C431.886 68.3828 432.191 68.6562 432.613 68.8281C433.034 69 433.245 69.1719 433.245 69.3438C433.245 69.7812 433.144 70 432.941 70H426.003ZM463.166 70C462.962 70 462.861 69.8594 462.861 69.5781C462.861 69.2969 462.923 69.1172 463.048 69.0391C463.189 68.9609 463.353 68.8828 463.541 68.8047C463.744 68.7266 463.9 68.6328 464.009 68.5234C464.494 68.0391 464.728 67.5 464.712 66.9062C464.712 66.2969 464.712 65.9609 464.712 65.8984V53.5C464.712 53 464.587 52.6406 464.337 52.4219C464.087 52.2031 463.822 52.0859 463.541 52.0703C463.259 52.0547 463.072 52.0156 462.978 51.9531C462.9 51.875 462.845 51.8047 462.814 51.7422C462.798 51.6797 462.783 51.625 462.767 51.5781C462.767 51.5312 462.767 51.4609 462.767 51.3672C462.783 51.2734 462.791 51.2031 462.791 51.1562C462.791 51.1094 462.798 51.0703 462.814 51.0391C462.845 51.0078 462.892 50.9766 462.955 50.9453C463.017 50.8984 463.056 50.8672 463.072 50.8516L467.291 47.7344C467.353 47.6875 467.525 47.6641 467.806 47.6641C468.087 47.6641 468.291 47.7031 468.416 47.7812C468.541 47.8438 468.603 48.0469 468.603 48.3906V50.125L469.798 49.4219L470.502 49.0703C472.673 47.9766 474.705 47.4297 476.595 47.4297C478.486 47.4297 480.345 48.1016 482.173 49.4453C483.002 50.0547 483.673 50.7969 484.189 51.6719C484.72 52.5312 484.986 53.4297 484.986 54.3672V66.9062C484.986 67.25 485.08 67.6172 485.267 68.0078C485.455 68.3828 485.759 68.6562 486.181 68.8281C486.603 69 486.814 69.1719 486.814 69.3438C486.814 69.7812 486.712 70 486.509 70H479.642C479.439 70 479.337 69.8594 479.337 69.5781C479.337 69.2969 479.4 69.1172 479.525 69.0391C479.666 68.9609 479.83 68.8828 480.017 68.8047C480.22 68.7266 480.384 68.625 480.509 68.5C480.65 68.375 480.767 68.2344 480.861 68.0781C480.955 67.9219 481.017 67.7422 481.048 67.5391C481.095 67.3203 481.119 67.1641 481.119 67.0703C481.134 66.9609 481.134 66.7656 481.119 66.4844C481.119 66.1875 481.119 65.9922 481.119 65.8984V54.9531C481.119 54.0156 480.806 53.1953 480.181 52.4922C478.978 51.1797 477.291 50.5234 475.119 50.5234C472.947 50.5234 470.767 51.0703 468.58 52.1641V66.9062C468.58 67.25 468.673 67.6172 468.861 68.0078C469.048 68.3828 469.353 68.6562 469.775 68.8281C470.197 69 470.408 69.1719 470.408 69.3438C470.408 69.7812 470.306 70 470.103 70H463.166ZM515.984 53.7109C515.062 51.0703 513.07 49.75 510.008 49.75C508.617 49.75 507.344 50.125 506.188 50.875C505.031 51.6094 504.141 52.5547 503.516 53.7109C502.906 54.8516 502.602 55.9297 502.602 56.9453C502.602 57.9609 502.633 58.4609 502.695 58.4453L515.938 53.8281V53.6875L515.984 53.7109ZM503.211 60.9297C503.883 62.7734 505.016 64.2188 506.609 65.2656C508.203 66.3125 510.016 66.8359 512.047 66.8359C514.625 66.8359 516.977 65.625 519.102 63.2031C519.43 62.8906 519.914 63.0547 520.555 63.6953C520.602 63.7422 520.594 63.8125 520.531 63.9062C518.75 66.375 517.367 67.9531 516.383 68.6406C514.711 69.8281 512.781 70.4219 510.594 70.4219C509.109 70.4219 507.672 70.125 506.281 69.5312C503.422 68.2812 501.383 66.2812 500.164 63.5312C499.539 62.125 499.227 60.4609 499.227 58.5391C499.227 56.6016 499.711 54.7422 500.68 52.9609C501.664 51.1641 503.078 49.75 504.922 48.7188C506.781 47.6875 508.914 47.1719 511.32 47.1719C514.258 47.1719 516.867 48.5312 519.148 51.25C520.305 52.625 520.883 53.7188 520.883 54.5312L503.211 60.9297ZM534.092 51.5781L534.116 51.1562C534.116 51.0781 534.155 51.0156 534.233 50.9688C534.327 50.9062 534.381 50.8672 534.397 50.8516L538.616 47.7344C538.678 47.6875 538.85 47.6641 539.131 47.6641C539.428 47.6641 539.631 47.7031 539.741 47.7812C539.85 47.8438 539.905 48.0469 539.905 48.3906V52.4219C539.998 52.2656 540.123 52.0938 540.28 51.9062C541.405 50.5 542.577 49.4141 543.795 48.6484C545.014 47.8828 546.405 47.5 547.967 47.5C548.467 47.5 548.741 47.5625 548.788 47.6875C549.053 48.4062 549.272 49.0859 549.444 49.7266L550.17 52.4922C550.217 52.6641 550.092 52.8359 549.795 53.0078C549.514 53.1641 549.295 53.2344 549.139 53.2188C548.983 53.2031 548.819 53.0547 548.647 52.7734L548.389 52.3516C547.545 51.5703 546.561 51.2656 545.436 51.4375C544.327 51.5938 543.272 52 542.272 52.6562C541.288 53.3125 540.561 54.0234 540.092 54.7891C540.077 54.8203 540.038 54.8828 539.975 54.9766C539.928 55.0547 539.905 55.1094 539.905 55.1406V65.8984C539.905 65.9766 539.897 66.1484 539.881 66.4141C539.881 66.6641 539.881 66.8281 539.881 66.9062C540.006 67.8906 540.342 68.5 540.889 68.7344C541.436 68.9688 541.717 69.1719 541.733 69.3438C541.733 69.7812 541.631 70 541.428 70H534.491C534.288 70 534.186 69.8594 534.186 69.5781C534.186 69.2969 534.248 69.1172 534.373 69.0391C534.498 68.9609 534.655 68.8828 534.842 68.8047C535.045 68.7266 535.202 68.6328 535.311 68.5234C535.545 68.2891 535.725 68.0234 535.85 67.7266C535.991 67.4141 536.053 67.0469 536.038 66.625C536.038 66.2031 536.038 65.9609 536.038 65.8984V53.5C536.022 52.9844 535.889 52.625 535.639 52.4219C535.405 52.2031 535.147 52.0859 534.866 52.0703C534.584 52.0547 534.397 52.0156 534.303 51.9531C534.163 51.8438 534.092 51.7188 534.092 51.5781Z" fill="#658353"/>
<path opacity="0.991" fill-rule="evenodd" clip-rule="evenodd" d="M292.228 47.0013C290.127 46.9813 288.051 47.1856 286 47.6144C286.088 47.8178 286.227 47.9907 286.417 48.1331C287.151 49.089 287.69 50.1422 288.035 51.2928C288.262 52.008 288.458 52.7311 288.624 53.4621C289.014 55.3523 289.422 57.2386 289.85 59.1211C290.195 60.5902 290.735 61.9893 291.468 63.3182C292.894 65.6507 295.027 66.7983 297.868 66.7607C299.927 66.6869 301.922 66.3018 303.851 65.6054C302.635 62.0993 300.894 58.8689 298.628 55.9143C298.595 55.8828 298.595 55.8514 298.628 55.82C301.644 58.3256 304.129 61.2338 306.082 64.5443C306.997 66.1764 307.618 67.9056 307.946 69.7317C308.403 70.1499 308.755 70.0792 309 69.5195C308.676 67.6112 308.039 65.8034 307.087 64.0963C307.942 62.6519 308.474 61.1035 308.681 59.4512C308.892 56.7429 308.059 54.3849 306.18 52.3774C304.097 50.3145 301.612 48.8683 298.726 48.0388C296.6 47.4191 294.434 47.0733 292.228 47.0013Z" fill="#3E5A39"/>
<defs>
<filter id="filter0_i_1056_13" x="0" y="0" width="593" height="101" filterUnits="userSpaceOnUse" color-interpolation-filters="sRGB">
<feFlood flood-opacity="0" result="BackgroundImageFix"/>
<feBlend mode="normal" in="SourceGraphic" in2="BackgroundImageFix" result="shape"/>
<feColorMatrix in="SourceAlpha" type="matrix" values="0 0 0 0 0 0 0 0 0 0 0 0 0 0 0 0 0 0 127 0" result="hardAlpha"/>
<feMorphology radius="8" operator="erode" in="SourceAlpha" result="effect1_innerShadow_1056_13"/>
<feOffset/>
<feGaussianBlur stdDeviation="2"/>
<feComposite in2="hardAlpha" operator="arithmetic" k2="-1" k3="1"/>
<feColorMatrix type="matrix" values="0 0 0 0 0.396078 0 0 0 0 0.513726 0 0 0 0 0.32549 0 0 0 0.4 0"/>
<feBlend mode="normal" in2="shape" result="effect1_innerShadow_1056_13"/>
</filter>
</defs>
</svg>
